# xmcd
#
# Track frame offsets:
#	150
#	15407
#	33508
#	48801
#	62879
#	82257
#	97841
#	119036
#	134060
#	147809
#	165263
#	182323
#
# Disc length: 2611 seconds
# Revision: 1
# Processed by: cddbd v1.5.2PL0 Copyright (c) Steve Scherf et al.
# Submitted via: dBpowerAMP V12.0
#
DISCID=9a0a310c
DTITLE=Colin James - Miles To Go
DYEAR=2018
DGENRE=Blues
TTITLE0=One More Mile
TTITLE1=Still A Fool
TTITLE2=Dig Myself A Hole
TTITLE3=i Will Remain
TTITLE4=40 Light Years
TTITLE5=Ooh Baby Hold Me
TTITLE6=Black Night
TTITLE7=Soul Of A Man
TTITLE8=See That My Grave Is Kept Clean
TTITLE9=I Need Your Love So Bad
TTITLE10=Tears Came Rolling Down
TTITLE11=One More Mile (Acoustic)
EXTD=
EXTT0=
EXTT1=
EXTT2=
EXTT3=
EXTT4=
EXTT5=
EXTT6=
EXTT7=
EXTT8=
EXTT9=
EXTT10=
EXTT11=
PLAYORDER=
